# xmcd CD database file
#
# Track frame offsets:
#	150
#	17932
#	30900
#	43359
#	59408
#	75359
#	88223
#	108240
#	121088
#	137476
#	152906
#
# Disc length: 2194 seconds
#
# Revision: 0
# Processed by: cddbd v1.5.2PL0 Copyright (c) Steve Scherf et al.
# Submitted via: CDex 1.51
#
DISCID=8508900b
DTITLE=Holly Williams - Here With Me
DYEAR=2009
DGENRE=Country
TTITLE0=He's Making A Fool Out of You
TTITLE1=Mama
TTITLE2=I Hold On
TTITLE3=Keep The Change
TTITLE4=Let Her Go
TTITLE5=Three Days In Bed
TTITLE6=Alone
TTITLE7=Love I Think Will Last
TTITLE8=Gone With The Morning Sun
TTITLE9=Without Jesus Here With Me
TTITLE10=Birds
EXTD=
EXTT0=
EXTT1=
EXTT2=
EXTT3=
EXTT4=
EXTT5=
EXTT6=
EXTT7=
EXTT8=
EXTT9=
EXTT10=
PLAYORDER=
